<?xml version="1.0" standalone="no"?>
<!DOCTYPE svg PUBLIC "-//W3C//DTD SVG 20010904//EN"
 "http://www.w3.org/TR/2001/REC-SVG-20010904/DTD/svg10.dtd">
<svg version="1.0" xmlns="http://www.w3.org/2000/svg"
 width="512.000000pt" height="512.000000pt" viewBox="0 0 512.000000 512.000000"
 preserveAspectRatio="xMidYMid meet">
<metadata>
Created by potrace 1.14, written by Peter Selinger 2001-2017
</metadata>
<g transform="translate(0.000000,512.000000) scale(0.100000,-0.100000)"
fill="#000000" stroke="none">
<path d="M2385 5109 c-113 -16 -143 -21 -200 -36 -33 -8 -70 -17 -82 -19 -12
-2 -43 -13 -68 -24 -26 -11 -52 -20 -58 -20 -17 0 -172 -76 -242 -118 -248
-149 -469 -387 -593 -637 -67 -134 -118 -283 -137 -395 -3 -19 -8 -48 -11 -63
-20 -118 -20 -322 1 -447 42 -258 134 -472 304 -706 l30 -40 -54 -43 c-44 -35
-181 -169 -220 -215 -220 -258 -388 -605 -430 -886 -4 -24 -8 -47 -10 -50 -9
-15 -19 -162 -20 -290 0 -145 8 -260 25 -335 5 -22 11 -51 13 -65 37 -200 183
-542 276 -643 14 -16 47 -40 73 -53 l47 -24 1528 0 1528 0 50 24 c60 28 88 58
142 151 110 190 208 469 229 650 3 28 9 75 14 105 8 53 5 357 -4 412 -6 40
-18 109 -23 138 -6 33 -41 169 -52 200 -44 123 -74 193 -129 300 -35 69 -67
127 -71 130 -4 3 -24 32 -46 65 -77 119 -246 303 -367 401 l-37 30 37 49 c63
84 110 159 150 241 39 79 91 202 97 233 2 9 13 52 24 96 11 44 22 100 26 125
3 25 7 63 10 85 6 49 7 250 1 285 -2 14 -7 46 -10 71 -30 215 -107 418 -234
614 -62 97 -103 147 -202 246 -240 241 -534 390 -885 450 -80 13 -346 19 -420
8z"/>
</g>
</svg>
